<svg xmlns="http://www.w3.org/2000/svg" style="width: 100%; height: 100%;" viewBox="0 0 624.5 581" width="625pt" height="581pt" xmlns:xlink="http://www.w3.org/1999/xlink">
<g class="graph" id="graph0" transform="scale(1) rotate(0) translate(4 577)">
<title>Tree</title>
<polygon fill="white" stroke="none" points="-4,4 -4,-577 620.5,-577 620.5,4 -4,4" />
<!-- 0 -->
<g class="node" id="node1"><title>0</title>
<polygon fill="none" stroke="black" points="440.5,-573 336.5,-573 336.5,-505 440.5,-505 440.5,-573" />
<text font-family="Times New Roman,serif" font-size="14px" text-anchor="middle" x="388.5" y="-557.8">lCP &lt;= 1.416</text>
<text font-family="Times New Roman,serif" font-size="14px" text-anchor="middle" x="388.5" y="-542.8">gini = 0.339</text>
<text font-family="Times New Roman,serif" font-size="14px" text-anchor="middle" x="388.5" y="-527.8">samples = 97</text>
<text font-family="Times New Roman,serif" font-size="14px" text-anchor="middle" x="388.5" y="-512.8">value = [76, 21]</text>
</g>
<!-- 1 -->
<g class="node" id="node2"><title>1</title>
<polygon fill="none" stroke="black" points="379,-469 278,-469 278,-401 379,-401 379,-469" />
<text font-family="Times New Roman,serif" font-size="14px" text-anchor="middle" x="328.5" y="-453.8">lPSA &lt;= 0.448</text>
<text font-family="Times New Roman,serif" font-size="14px" text-anchor="middle" x="328.5" y="-438.8">gini = 0.191</text>
<text font-family="Times New Roman,serif" font-size="14px" text-anchor="middle" x="328.5" y="-423.8">samples = 84</text>
<text font-family="Times New Roman,serif" font-size="14px" text-anchor="middle" x="328.5" y="-408.8">value = [75, 9]</text>
</g>
<!-- 0&#45;&gt;1 -->
<g class="edge" id="edge1"><title>0-&gt;1</title>
<path fill="none" stroke="black" d="M 369.02 -504.884 C 363.99 -496.332 358.508 -487.013 353.248 -478.072" />
<polygon fill="black" stroke="black" points="356.175,-476.144 348.088,-469.299 350.141,-479.693 356.175,-476.144" />
<text font-family="Times New Roman,serif" font-size="14px" text-anchor="middle" x="341.814" y="-489.799">True</text>
</g>
<!-- 12 -->
<g class="node" id="node13"><title>12</title>
<polygon fill="none" stroke="black" points="501.5,-469 397.5,-469 397.5,-401 501.5,-401 501.5,-469" />
<text font-family="Times New Roman,serif" font-size="14px" text-anchor="middle" x="449.5" y="-453.8">lCaVol &lt;= 1.05</text>
<text font-family="Times New Roman,serif" font-size="14px" text-anchor="middle" x="449.5" y="-438.8">gini = 0.142</text>
<text font-family="Times New Roman,serif" font-size="14px" text-anchor="middle" x="449.5" y="-423.8">samples = 13</text>
<text font-family="Times New Roman,serif" font-size="14px" text-anchor="middle" x="449.5" y="-408.8">value = [1, 12]</text>
</g>
<!-- 0&#45;&gt;12 -->
<g class="edge" id="edge12"><title>0-&gt;12</title>
<path fill="none" stroke="black" d="M 408.305 -504.884 C 413.419 -496.332 418.992 -487.013 424.339 -478.072" />
<polygon fill="black" stroke="black" points="427.457,-479.678 429.586,-469.299 421.449,-476.085 427.457,-479.678" />
<text font-family="Times New Roman,serif" font-size="14px" text-anchor="middle" x="435.684" y="-489.844">False</text>
</g>
<!-- 2 -->
<g class="node" id="node3"><title>2</title>
<polygon fill="none" stroke="black" points="260.5,-357.5 162.5,-357.5 162.5,-304.5 260.5,-304.5 260.5,-357.5" />
<text font-family="Times New Roman,serif" font-size="14px" text-anchor="middle" x="211.5" y="-342.3">gini = 0.0</text>
<text font-family="Times New Roman,serif" font-size="14px" text-anchor="middle" x="211.5" y="-327.3">samples = 66</text>
<text font-family="Times New Roman,serif" font-size="14px" text-anchor="middle" x="211.5" y="-312.3">value = [66, 0]</text>
</g>
<!-- 1&#45;&gt;2 -->
<g class="edge" id="edge2"><title>1-&gt;2</title>
<path fill="none" stroke="black" d="M 290.513 -400.884 C 277.015 -389.116 261.849 -375.894 248.439 -364.203" />
<polygon fill="black" stroke="black" points="250.611,-361.453 240.773,-357.52 246.011,-366.73 250.611,-361.453" />
</g>
<!-- 3 -->
<g class="node" id="node4"><title>3</title>
<polygon fill="none" stroke="black" points="380,-365 279,-365 279,-297 380,-297 380,-365" />
<text font-family="Times New Roman,serif" font-size="14px" text-anchor="middle" x="329.5" y="-349.8">lBPH &lt;= 1.038</text>
<text font-family="Times New Roman,serif" font-size="14px" text-anchor="middle" x="329.5" y="-334.8">gini = 0.5</text>
<text font-family="Times New Roman,serif" font-size="14px" text-anchor="middle" x="329.5" y="-319.8">samples = 18</text>
<text font-family="Times New Roman,serif" font-size="14px" text-anchor="middle" x="329.5" y="-304.8">value = [9, 9]</text>
</g>
<!-- 1&#45;&gt;3 -->
<g class="edge" id="edge3"><title>1-&gt;3</title>
<path fill="none" stroke="black" d="M 328.825 -400.884 C 328.904 -392.778 328.99 -383.982 329.074 -375.472" />
<polygon fill="black" stroke="black" points="332.575,-375.333 329.174,-365.299 325.576,-375.265 332.575,-375.333" />
</g>
<!-- 4 -->
<g class="node" id="node5"><title>4</title>
<polygon fill="none" stroke="black" points="268.5,-261 158.5,-261 158.5,-193 268.5,-193 268.5,-261" />
<text font-family="Times New Roman,serif" font-size="14px" text-anchor="middle" x="213.5" y="-245.8">lCaVol &lt;= 1.105</text>
<text font-family="Times New Roman,serif" font-size="14px" text-anchor="middle" x="213.5" y="-230.8">gini = 0.426</text>
<text font-family="Times New Roman,serif" font-size="14px" text-anchor="middle" x="213.5" y="-215.8">samples = 13</text>
<text font-family="Times New Roman,serif" font-size="14px" text-anchor="middle" x="213.5" y="-200.8">value = [4, 9]</text>
</g>
<!-- 3&#45;&gt;4 -->
<g class="edge" id="edge4"><title>3-&gt;4</title>
<path fill="none" stroke="black" d="M 291.838 -296.884 C 281.404 -287.709 269.965 -277.65 259.13 -268.123" />
<polygon fill="black" stroke="black" points="261.191,-265.274 251.37,-261.299 256.568,-270.531 261.191,-265.274" />
</g>
<!-- 11 -->
<g class="node" id="node12"><title>11</title>
<polygon fill="none" stroke="black" points="378,-253.5 287,-253.5 287,-200.5 378,-200.5 378,-253.5" />
<text font-family="Times New Roman,serif" font-size="14px" text-anchor="middle" x="332.5" y="-238.3">gini = 0.0</text>
<text font-family="Times New Roman,serif" font-size="14px" text-anchor="middle" x="332.5" y="-223.3">samples = 5</text>
<text font-family="Times New Roman,serif" font-size="14px" text-anchor="middle" x="332.5" y="-208.3">value = [5, 0]</text>
</g>
<!-- 3&#45;&gt;11 -->
<g class="edge" id="edge11"><title>3-&gt;11</title>
<path fill="none" stroke="black" d="M 330.474 -296.884 C 330.788 -286.216 331.137 -274.352 331.455 -263.519" />
<polygon fill="black" stroke="black" points="334.954,-263.619 331.749,-253.52 327.957,-263.413 334.954,-263.619" />
</g>
<!-- 5 -->
<g class="node" id="node6"><title>5</title>
<polygon fill="none" stroke="black" points="209,-157 90,-157 90,-89 209,-89 209,-157" />
<text font-family="Times New Roman,serif" font-size="14px" text-anchor="middle" x="149.5" y="-141.8">lWeight &lt;= -1.115</text>
<text font-family="Times New Roman,serif" font-size="14px" text-anchor="middle" x="149.5" y="-126.8">gini = 0.219</text>
<text font-family="Times New Roman,serif" font-size="14px" text-anchor="middle" x="149.5" y="-111.8">samples = 8</text>
<text font-family="Times New Roman,serif" font-size="14px" text-anchor="middle" x="149.5" y="-96.8">value = [1, 7]</text>
</g>
<!-- 4&#45;&gt;5 -->
<g class="edge" id="edge5"><title>4-&gt;5</title>
<path fill="none" stroke="black" d="M 192.721 -192.884 C 187.3 -184.243 181.387 -174.819 175.723 -165.793" />
<polygon fill="black" stroke="black" points="178.673,-163.91 170.394,-157.299 172.744,-167.63 178.673,-163.91" />
</g>
<!-- 8 -->
<g class="node" id="node9"><title>8</title>
<polygon fill="none" stroke="black" points="328,-157 227,-157 227,-89 328,-89 328,-157" />
<text font-family="Times New Roman,serif" font-size="14px" text-anchor="middle" x="277.5" y="-141.8">lPSA &lt;= 1.506</text>
<text font-family="Times New Roman,serif" font-size="14px" text-anchor="middle" x="277.5" y="-126.8">gini = 0.48</text>
<text font-family="Times New Roman,serif" font-size="14px" text-anchor="middle" x="277.5" y="-111.8">samples = 5</text>
<text font-family="Times New Roman,serif" font-size="14px" text-anchor="middle" x="277.5" y="-96.8">value = [3, 2]</text>
</g>
<!-- 4&#45;&gt;8 -->
<g class="edge" id="edge8"><title>4-&gt;8</title>
<path fill="none" stroke="black" d="M 234.279 -192.884 C 239.7 -184.243 245.613 -174.819 251.277 -165.793" />
<polygon fill="black" stroke="black" points="254.256,-167.63 256.606,-157.299 248.327,-163.91 254.256,-167.63" />
</g>
<!-- 6 -->
<g class="node" id="node7"><title>6</title>
<polygon fill="none" stroke="black" points="91,-53 0,-53 0,0 91,0 91,-53" />
<text font-family="Times New Roman,serif" font-size="14px" text-anchor="middle" x="45.5" y="-37.8">gini = 0.0</text>
<text font-family="Times New Roman,serif" font-size="14px" text-anchor="middle" x="45.5" y="-22.8">samples = 1</text>
<text font-family="Times New Roman,serif" font-size="14px" text-anchor="middle" x="45.5" y="-7.8">value = [1, 0]</text>
</g>
<!-- 5&#45;&gt;6 -->
<g class="edge" id="edge6"><title>5-&gt;6</title>
<path fill="none" stroke="black" d="M 113.126 -88.9485 C 102.857 -79.6175 91.6916 -69.4722 81.4478 -60.1641" />
<polygon fill="black" stroke="black" points="83.5788,-57.3713 73.824,-53.2367 78.8713,-62.5521 83.5788,-57.3713" />
</g>
<!-- 7 -->
<g class="node" id="node8"><title>7</title>
<polygon fill="none" stroke="black" points="200,-53 109,-53 109,0 200,0 200,-53" />
<text font-family="Times New Roman,serif" font-size="14px" text-anchor="middle" x="154.5" y="-37.8">gini = 0.0</text>
<text font-family="Times New Roman,serif" font-size="14px" text-anchor="middle" x="154.5" y="-22.8">samples = 7</text>
<text font-family="Times New Roman,serif" font-size="14px" text-anchor="middle" x="154.5" y="-7.8">value = [0, 7]</text>
</g>
<!-- 5&#45;&gt;7 -->
<g class="edge" id="edge7"><title>5-&gt;7</title>
<path fill="none" stroke="black" d="M 151.249 -88.9485 C 151.684 -80.7153 152.154 -71.848 152.596 -63.4814" />
<polygon fill="black" stroke="black" points="156.105,-63.4077 153.138,-53.2367 149.115,-63.0378 156.105,-63.4077" />
</g>
<!-- 9 -->
<g class="node" id="node10"><title>9</title>
<polygon fill="none" stroke="black" points="314,-53 223,-53 223,0 314,0 314,-53" />
<text font-family="Times New Roman,serif" font-size="14px" text-anchor="middle" x="268.5" y="-37.8">gini = 0.0</text>
<text font-family="Times New Roman,serif" font-size="14px" text-anchor="middle" x="268.5" y="-22.8">samples = 3</text>
<text font-family="Times New Roman,serif" font-size="14px" text-anchor="middle" x="268.5" y="-7.8">value = [3, 0]</text>
</g>
<!-- 8&#45;&gt;9 -->
<g class="edge" id="edge9"><title>8-&gt;9</title>
<path fill="none" stroke="black" d="M 274.352 -88.9485 C 273.559 -80.6238 272.705 -71.6509 271.9 -63.2027" />
<polygon fill="black" stroke="black" points="275.384,-62.8598 270.951,-53.2367 268.415,-63.5235 275.384,-62.8598" />
</g>
<!-- 10 -->
<g class="node" id="node11"><title>10</title>
<polygon fill="none" stroke="black" points="423,-53 332,-53 332,0 423,0 423,-53" />
<text font-family="Times New Roman,serif" font-size="14px" text-anchor="middle" x="377.5" y="-37.8">gini = 0.0</text>
<text font-family="Times New Roman,serif" font-size="14px" text-anchor="middle" x="377.5" y="-22.8">samples = 2</text>
<text font-family="Times New Roman,serif" font-size="14px" text-anchor="middle" x="377.5" y="-7.8">value = [0, 2]</text>
</g>
<!-- 8&#45;&gt;10 -->
<g class="edge" id="edge10"><title>8-&gt;10</title>
<path fill="none" stroke="black" d="M 312.475 -88.9485 C 322.349 -79.6175 333.085 -69.4722 342.935 -60.1641" />
<polygon fill="black" stroke="black" points="345.401,-62.649 350.265,-53.2367 340.593,-57.5613 345.401,-62.649" />
</g>
<!-- 13 -->
<g class="node" id="node14"><title>13</title>
<polygon fill="none" stroke="black" points="500,-365 399,-365 399,-297 500,-297 500,-365" />
<text font-family="Times New Roman,serif" font-size="14px" text-anchor="middle" x="449.5" y="-349.8">lPSA &lt;= 0.634</text>
<text font-family="Times New Roman,serif" font-size="14px" text-anchor="middle" x="449.5" y="-334.8">gini = 0.444</text>
<text font-family="Times New Roman,serif" font-size="14px" text-anchor="middle" x="449.5" y="-319.8">samples = 3</text>
<text font-family="Times New Roman,serif" font-size="14px" text-anchor="middle" x="449.5" y="-304.8">value = [1, 2]</text>
</g>
<!-- 12&#45;&gt;13 -->
<g class="edge" id="edge13"><title>12-&gt;13</title>
<path fill="none" stroke="black" d="M 449.5 -400.884 C 449.5 -392.778 449.5 -383.982 449.5 -375.472" />
<polygon fill="black" stroke="black" points="453,-375.299 449.5,-365.299 446,-375.299 453,-375.299" />
</g>
<!-- 16 -->
<g class="node" id="node17"><title>16</title>
<polygon fill="none" stroke="black" points="616.5,-357.5 518.5,-357.5 518.5,-304.5 616.5,-304.5 616.5,-357.5" />
<text font-family="Times New Roman,serif" font-size="14px" text-anchor="middle" x="567.5" y="-342.3">gini = 0.0</text>
<text font-family="Times New Roman,serif" font-size="14px" text-anchor="middle" x="567.5" y="-327.3">samples = 10</text>
<text font-family="Times New Roman,serif" font-size="14px" text-anchor="middle" x="567.5" y="-312.3">value = [0, 10]</text>
</g>
<!-- 12&#45;&gt;16 -->
<g class="edge" id="edge16"><title>12-&gt;16</title>
<path fill="none" stroke="black" d="M 487.811 -400.884 C 501.425 -389.116 516.721 -375.894 530.245 -364.203" />
<polygon fill="black" stroke="black" points="532.7,-366.707 537.977,-357.52 528.123,-361.412 532.7,-366.707" />
</g>
<!-- 14 -->
<g class="node" id="node15"><title>14</title>
<polygon fill="none" stroke="black" points="492,-253.5 401,-253.5 401,-200.5 492,-200.5 492,-253.5" />
<text font-family="Times New Roman,serif" font-size="14px" text-anchor="middle" x="446.5" y="-238.3">gini = 0.0</text>
<text font-family="Times New Roman,serif" font-size="14px" text-anchor="middle" x="446.5" y="-223.3">samples = 2</text>
<text font-family="Times New Roman,serif" font-size="14px" text-anchor="middle" x="446.5" y="-208.3">value = [0, 2]</text>
</g>
<!-- 13&#45;&gt;14 -->
<g class="edge" id="edge14"><title>13-&gt;14</title>
<path fill="none" stroke="black" d="M 448.526 -296.884 C 448.212 -286.216 447.863 -274.352 447.545 -263.519" />
<polygon fill="black" stroke="black" points="451.043,-263.413 447.251,-253.52 444.046,-263.619 451.043,-263.413" />
</g>
<!-- 15 -->
<g class="node" id="node16"><title>15</title>
<polygon fill="none" stroke="black" points="601,-253.5 510,-253.5 510,-200.5 601,-200.5 601,-253.5" />
<text font-family="Times New Roman,serif" font-size="14px" text-anchor="middle" x="555.5" y="-238.3">gini = 0.0</text>
<text font-family="Times New Roman,serif" font-size="14px" text-anchor="middle" x="555.5" y="-223.3">samples = 1</text>
<text font-family="Times New Roman,serif" font-size="14px" text-anchor="middle" x="555.5" y="-208.3">value = [1, 0]</text>
</g>
<!-- 13&#45;&gt;15 -->
<g class="edge" id="edge15"><title>13-&gt;15</title>
<path fill="none" stroke="black" d="M 483.915 -296.884 C 496.03 -285.226 509.628 -272.141 521.693 -260.532" />
<polygon fill="black" stroke="black" points="524.2,-262.976 528.979,-253.52 519.347,-257.932 524.2,-262.976" />
</g>
</g>
</svg>